<?xml version="1.0" encoding="utf-8"?>
<!-- Generator: Adobe Illustrator 17.0.0, SVG Export Plug-In . SVG Version: 6.00 Build 0)  -->
<!DOCTYPE svg PUBLIC "-//W3C//DTD SVG 1.1//EN" "http://www.w3.org/Graphics/SVG/1.1/DTD/svg11.dtd">
<svg version="1.1" id="Facebook" xmlns="http://www.w3.org/2000/svg" xmlns:xlink="http://www.w3.org/1999/xlink" x="0px" y="0px"
	 width="100px" height="100px" viewBox="-40 -40 100 100" enable-background="new -40 -40 100 100" xml:space="preserve">
<g>
	<circle id="facebook-back" fill="#FFFFFF" cx="10" cy="10" r="48.25"/>
	<path id="facebook-facebook" fill="#262626" d="M33.474-16.387h-46.948c-1.609,0-2.913,1.304-2.913,2.913v46.948
		c0,1.609,1.304,2.913,2.913,2.913h25.275V15.95H4.924V7.985h6.877V2.112c0-6.816,4.163-10.528,10.245-10.528
		c2.912,0,5.415,0.217,6.145,0.314v7.123l-4.216,0.002c-3.308,0-3.948,1.572-3.948,3.877v5.085h7.887l-1.027,7.965h-6.86v20.436
		h13.448c1.609,0,2.913-1.304,2.913-2.913v-46.948C36.387-15.083,35.083-16.387,33.474-16.387z"/>
</g>
</svg>
