<?xml version="1.0" encoding="utf-8"?>
<!-- Generator: Adobe Illustrator 17.0.0, SVG Export Plug-In . SVG Version: 6.00 Build 0)  -->
<!DOCTYPE svg PUBLIC "-//W3C//DTD SVG 1.1//EN" "http://www.w3.org/Graphics/SVG/1.1/DTD/svg11.dtd">
<svg version="1.1" id="Instagram" xmlns="http://www.w3.org/2000/svg" xmlns:xlink="http://www.w3.org/1999/xlink" x="0px" y="0px"
	 width="300px" height="300px" viewBox="330 1350 300 300" enable-background="new 330 1350 300 300" xml:space="preserve">
<g>
	<circle id="instagram-back" fill="#5A2937" cx="480" cy="1500" r="142.5"/>
	<path id="instagram-instagram" fill="#FFFFFF" d="M541.389,1487.716h-13.894c1.011,3.93,1.611,8.035,1.611,12.281
		c0,27.126-21.987,49.109-49.107,49.109c-27.119,0-49.105-21.983-49.105-49.109c0-4.245,0.6-8.351,1.613-12.281h-13.895v67.529
		c0,3.385,2.75,6.134,6.145,6.134h110.485c3.396,0,6.147-2.748,6.147-6.134V1487.716L541.389,1487.716z M541.389,1444.75
		c0-3.389-2.751-6.138-6.147-6.138h-18.41c-3.39,0-6.138,2.75-6.138,6.138v18.418c0,3.389,2.748,6.138,6.138,6.138h18.41
		c3.396,0,6.147-2.749,6.147-6.138V1444.75L541.389,1444.75z M479.999,1469.306c-16.952,0-30.693,13.739-30.693,30.69
		c0,16.95,13.741,30.697,30.692,30.697c16.953,0,30.695-13.747,30.695-30.697C510.694,1483.045,496.951,1469.306,479.999,1469.306
		 M541.389,1579.8H418.612c-10.167,0-18.411-8.247-18.411-18.421v-122.766c0-10.169,8.244-18.411,18.411-18.411h122.777
		c10.17,0,18.41,8.243,18.41,18.411v122.766C559.8,1571.552,551.559,1579.8,541.389,1579.8"/>
</g>
</svg>
