<?xml version="1.0" encoding="utf-8"?>
<!-- Generator: Adobe Illustrator 17.0.0, SVG Export Plug-In . SVG Version: 6.00 Build 0)  -->
<!DOCTYPE svg PUBLIC "-//W3C//DTD SVG 1.1//EN" "http://www.w3.org/Graphics/SVG/1.1/DTD/svg11.dtd">
<svg version="1.1" id="Instagram" xmlns="http://www.w3.org/2000/svg" xmlns:xlink="http://www.w3.org/1999/xlink" x="0px" y="0px"
	 width="100px" height="100px" viewBox="430 1450 100 100" enable-background="new 430 1450 100 100" xml:space="preserve">
<g>
	<circle id="instagram-back" fill="#FFFFFF" cx="480" cy="1500" r="48.27"/>
	<path id="instagram-instagram" fill="#262626" d="M500.795,1495.839h-4.707c0.342,1.331,0.546,2.722,0.546,4.16
		c0,9.189-7.448,16.635-16.635,16.635c-9.186,0-16.634-7.447-16.634-16.635c0-1.438,0.203-2.829,0.547-4.16h-4.707v22.875
		c0,1.147,0.931,2.078,2.082,2.078h37.426c1.15,0,2.082-0.931,2.082-2.078L500.795,1495.839L500.795,1495.839z M500.795,1481.285
		c0-1.148-0.932-2.079-2.082-2.079h-6.236c-1.148,0-2.079,0.931-2.079,2.079v6.239c0,1.148,0.931,2.079,2.079,2.079h6.236
		c1.15,0,2.082-0.931,2.082-2.079L500.795,1481.285L500.795,1481.285z M480,1489.603c-5.742,0-10.397,4.654-10.397,10.396
		c0,5.742,4.655,10.398,10.397,10.398c5.743,0,10.398-4.657,10.398-10.398C490.397,1494.257,485.742,1489.603,480,1489.603
		 M500.795,1527.031h-41.59c-3.444,0-6.237-2.794-6.237-6.24v-41.586c0-3.444,2.793-6.237,6.237-6.237h41.59
		c3.445,0,6.236,2.792,6.236,6.237v41.586C507.031,1524.238,504.24,1527.031,500.795,1527.031"/>
</g>
</svg>
