<?xml version="1.0" encoding="utf-8"?>
<!-- Generator: Adobe Illustrator 19.0.0, SVG Export Plug-In . SVG Version: 6.00 Build 0)  -->
<svg version="1.1" id="Layer_1" xmlns="http://www.w3.org/2000/svg" xmlns:xlink="http://www.w3.org/1999/xlink" x="0px" y="0px"
	 viewBox="0 0 96 96" style="enable-background:new 0 0 96 96;" xml:space="preserve">
<style type="text/css">
	.st0{fill:#CA4638;}
	.st1{fill:#FFFFFF;}
</style>
<g id="XMLID_1_">
	<circle id="XMLID_3_" class="st0" cx="48" cy="48" r="27.5"/>
	<path id="XMLID_9_" class="st1" d="M51.2,51.6c-0.6,0.6-0.1,1.6-0.1,1.6l4.3,7.2c0,0,0.7,0.9,1.3,0.9c0.6,0,1.2-0.5,1.2-0.5
		l3.4-4.9c0,0,0.3-0.6,0.4-1.1c0-0.8-1.1-1-1.1-1l-8-2.6C52.5,51.3,51.7,51.1,51.2,51.6z M50.8,48c0.4,0.7,1.5,0.5,1.5,0.5l8-2.3
		c0,0,1.1-0.4,1.3-1c0.2-0.6-0.2-1.3-0.2-1.3l-3.8-4.5c0,0-0.3-0.6-1-0.6c-0.8-0.1-1.2,0.9-1.2,0.9l-4.5,7.1
		C50.8,46.6,50.4,47.4,50.8,48z M47,45.2c0.9-0.2,1.1-1.6,1.1-1.6L48,32.2c0,0-0.1-1.4-0.8-1.8c-1-0.6-1.3-0.3-1.6-0.2L39,32.6
		c0,0-0.7,0.2-1,0.8c-0.5,0.8,0.5,1.9,0.5,1.9l6.9,9.4C45.4,44.7,46.1,45.4,47,45.2z M45.4,49.8c0-0.9-1.1-1.4-1.1-1.4l-7.2-3.6
		c0,0-1.1-0.4-1.6-0.1c-0.4,0.2-0.7,0.7-0.8,1l-0.5,5.7c0,0-0.1,1,0.2,1.4c0.4,0.6,1.6,0.2,1.6,0.2l8.4-1.8
		C44.8,51,45.3,51,45.4,49.8z M47.4,52.9c-0.7-0.4-1.6,0.4-1.6,0.4l-5.6,6.2c0,0-0.7,0.9-0.5,1.5c0.2,0.5,0.4,0.8,0.8,1l5.6,1.8
		c0,0,0.7,0.1,1.2,0c0.7-0.2,0.6-1.4,0.6-1.4l0.1-8.3C48.1,54.1,48.1,53.3,47.4,52.9z"/>
</g>
</svg>
